HIERARCHY
ROOT Hips
{
	OFFSET	0.00	0.00	0.00
	CHANNELS 6 Xposition Yposition Zposition Zrotation Xrotation Yrotation
	JOINT LeftUpperLeg
	{
		OFFSET	 0.100000	-0.066564	-0.000554
		CHANNELS 3 Zrotation Xrotation Yrotation
		JOINT LeftLowerLeg
		{
			OFFSET	 0.002447	-0.463436	-0.005172
			CHANNELS 3 Zrotation Xrotation Yrotation
			JOINT LeftFoot
			{
				OFFSET	-0.002447	-0.420480	-0.020576
				CHANNELS 3 Zrotation Xrotation Yrotation
				JOINT LeftToes
				{
					OFFSET	 0.003734	-0.104922	 0.126407
					CHANNELS 3 Zrotation Xrotation Yrotation
					End Site
					{
						OFFSET	 0.000000	 0.000000	 0.059955
					}
				}
			}
		}
	}
	JOINT RightUpperLeg
	{
		OFFSET	-0.100000	-0.066564	-0.000554
		CHANNELS 3 Zrotation Xrotation Yrotation
		JOINT RightLowerLeg
		{
			OFFSET	-0.002447	-0.463436	-0.005146
			CHANNELS 3 Zrotation Xrotation Yrotation
			JOINT RightFoot
			{
				OFFSET	 0.002447	-0.420479	-0.020602
				CHANNELS 3 Zrotation Xrotation Yrotation
				JOINT RightToes
				{
					OFFSET	-0.003734	-0.104922	 0.126407
					CHANNELS 3 Zrotation Xrotation Yrotation
					End Site
					{
						OFFSET	-0.000000	 0.000000	 0.059955
					}
				}
			}
		}
	}
	JOINT Spine
	{
		OFFSET	 0.000000	 0.099235	-0.012273
		CHANNELS 3 Zrotation Xrotation Yrotation
		JOINT Chest
		{
			OFFSET	-0.000001	 0.116455	-0.014223
			CHANNELS 3 Zrotation Xrotation Yrotation
			JOINT UpperChest
			{
				OFFSET	 0.000001	 0.133602	-0.016265
				CHANNELS 3 Zrotation Xrotation Yrotation
				JOINT LeftShoulder
				{
					OFFSET	 0.061058	 0.091105	 0.007056
					CHANNELS 3 Zrotation Xrotation Yrotation
					JOINT LeftUpperArm
					{
						OFFSET	 0.133942	-0.002659	-0.026009
						CHANNELS 3 Zrotation Xrotation Yrotation
						JOINT LeftLowerArm
						{
							OFFSET	 0.274047	 0.000000	 0.000000
							CHANNELS 3 Zrotation Xrotation Yrotation
							JOINT LeftHand
							{
								OFFSET	 0.276145	 0.000000	 0.000000
								CHANNELS 3 Zrotation Xrotation Yrotation
								End Site
								{
									OFFSET	 0.165687	 0.000000	 0.000000
								}
							}
						}
					}
				}
				JOINT Neck
				{
					OFFSET	 0.000000	 0.150325	 0.007929
					CHANNELS 3 Zrotation Xrotation Yrotation
					JOINT Head
					{
						OFFSET	 0.000000	 0.103218	 0.031424
						CHANNELS 3 Zrotation Xrotation Yrotation
						End Site
						{
							OFFSET	 0.000000	 0.061931	 0.018855
						}
					}
				}
				JOINT RightShoulder
				{
					OFFSET	-0.061057	 0.091105	 0.007056
					CHANNELS 3 Zrotation Xrotation Yrotation
					JOINT RightUpperArm
					{
						OFFSET	-0.133943	-0.002660	-0.026009
						CHANNELS 3 Zrotation Xrotation Yrotation
						JOINT RightLowerArm
						{
							OFFSET	-0.274047	 0.000000	 0.000000
							CHANNELS 3 Zrotation Xrotation Yrotation
							JOINT RightHand
							{
								OFFSET	-0.276145	 0.000000	 0.000000
								CHANNELS 3 Zrotation Xrotation Yrotation
								End Site
								{
									OFFSET	-0.165687	 0.000000	 0.000000
								}
							}
						}
					}
				}
			}
		}
	}
}
MOTION
Frames:    11
Frame Time: 0.03333334
-0.126730	 1.054420	-1.096000	-1.435159	 1.945282	 12.435280	 11.353380	 0.905551	 1.830974	 0.000286	 0.091801	-0.000262	-12.166930	-1.703164	 6.075894	 0.000293	 0.356580	-0.000792	-4.097539	-3.056720	-28.640880	 0.073984	 11.534330	-0.000186	-2.245735	-6.479984	-17.115200	-0.000306	 0.295277	 0.000798	 2.165746	-0.880422	 0.152225	-0.000000	 0.000000	 0.000000	 4.342150	-1.759390	 0.339853	-0.326112	-0.655836	 14.409550	-83.079730	-3.873758	-1.493632	-19.354960	 13.201680	-42.797570	 22.849230	 29.201500	-29.754110	-3.549479	-4.806140	 4.082367	-3.630746	-4.851682	 4.042209	 1.311772	 3.806688	-14.697950	 80.169390	 5.202206	 30.265540	 20.730610	 20.039440	 70.793560	-39.938770	-13.210210	 21.351780
-0.128100	 1.054530	-1.096200	-1.429014	 1.942295	 13.437470	 11.469510	 0.594565	 1.370785	-0.000150	 0.092645	-0.000640	-12.365120	-1.464376	 5.439110	 0.000621	 0.356423	 0.000256	-4.043685	-2.990789	-29.204040	 0.075845	 11.617470	 0.001091	-2.594278	-6.516491	-17.544240	-0.000303	 0.290247	-0.000308	 2.194722	-0.862476	 0.226201	-0.000000	 0.000000	 0.000000	 4.399131	-1.719265	 0.484762	-0.372697	-0.739332	 14.474720	-82.992810	-3.918341	-1.217881	-19.466790	 12.796500	-42.691440	 23.468710	 27.927170	-29.649450	-3.926566	-5.426198	 5.570022	-3.996764	-5.455294	 5.424105	 1.221747	 3.764671	-14.575970	 80.021050	 4.981637	 30.244240	 21.583380	 21.360360	 71.267560	-39.270630	-12.673250	 21.560760
-0.129580	 1.054570	-1.096570	-1.452420	 1.943196	 14.509520	 11.613350	 0.247963	 0.863148	-0.000094	 0.077941	-0.000276	-12.610160	-1.247673	 4.807803	-0.000197	 0.354030	 0.000465	-3.975389	-2.923826	-30.005100	 0.070381	 11.694020	 0.000805	-2.885850	-6.583159	-17.785120	 0.000358	 0.285348	 0.000293	 2.254931	-0.820599	 0.270928	-0.000000	 0.000000	 0.000000	 4.522429	-1.633516	 0.575835	-0.401045	-0.832613	 14.334150	-82.997430	-4.163680	-0.953293	-19.753000	 12.427780	-42.471770	 24.827700	 26.249910	-29.819870	-4.204512	-5.950344	 7.053563	-4.337034	-6.026887	 6.960448	 1.162582	 3.936738	-14.447210	 79.597480	 5.252551	 30.518310	 22.228900	 21.892390	 71.913280	-36.549610	-12.430430	 22.370780
-0.130850	 1.054540	-1.096700	-1.440114	 1.922691	 15.300780	 11.705200	 0.010617	 0.465700	 0.000853	 0.082836	 0.000124	-12.852580	-1.076068	 4.387541	 0.000535	 0.354698	 0.000260	-3.932833	-2.843001	-30.547510	 0.067801	 11.752390	 0.001802	-3.089211	-6.661196	-18.015750	 0.000445	 0.282827	-0.000039	 2.286658	-0.783872	 0.318127	-0.000000	 0.000000	 0.000000	 4.586538	-1.557001	 0.666882	-0.528918	-0.927446	 14.244040	-82.917750	-4.295931	-0.763177	-20.252090	 11.891780	-42.313480	 26.182900	 24.898370	-30.474050	-4.654703	-6.349786	 8.420897	-4.730873	-6.418095	 8.324588	 1.058793	 3.993687	-14.454260	 79.274640	 5.541548	 30.788710	 22.782520	 22.416100	 72.212880	-34.875000	-12.311600	 23.416720
-0.133110	 1.054470	-1.096650	-1.595904	 1.818868	 16.456870	 12.047840	-0.302260	-0.186891	 0.000498	 0.083742	-0.000086	-13.176160	-0.901044	 3.844862	-0.000838	 0.353261	-0.000101	-3.593790	-2.613360	-31.216110	 0.070093	 11.628170	 0.001412	-3.369840	-6.684564	-18.454240	 0.000168	 0.278506	-0.000111	 2.376244	-0.736595	 0.430792	-0.000000	 0.000000	 0.000000	 4.767154	-1.455963	 0.892487	-0.503548	-0.981747	 14.066630	-83.208110	-4.778209	-0.469942	-20.013630	 11.772730	-42.421230	 27.679480	 22.887780	-31.436380	-4.829342	-6.951270	 10.039250	-5.038726	-7.031197	 9.810026	 1.217658	 4.176503	-14.517760	 78.882630	 5.849537	 31.186680	 23.396370	 24.241350	 72.862750	-32.666560	-12.327010	 24.231230
-0.134840	 1.054390	-1.096580	-1.721837	 1.725513	 17.355650	 12.320000	-0.539646	-0.670164	 0.001462	 0.082826	-0.000083	-13.426030	-0.766086	 3.380419	 0.000337	 0.352175	 0.000106	-3.316260	-2.427624	-31.718580	 0.073091	 11.525170	 0.000811	-3.559003	-6.713250	-18.816950	-0.000015	 0.276780	-0.000729	 2.462149	-0.695801	 0.479915	-0.000000	 0.000000	 0.000000	 4.940145	-1.373860	 0.991058	-0.649430	-1.066079	 13.853740	-83.298520	-5.089233	-0.324577	-20.035080	 11.576970	-42.557870	 28.516110	 21.560010	-32.103180	-5.071395	-7.308965	 10.941820	-5.257741	-7.379867	 10.839820	 1.258444	 4.343564	-14.623410	 78.865550	 6.080361	 31.534370	 23.942340	 25.623530	 73.363090	-30.222520	-11.663660	 24.606450
-0.136540	 1.054220	-1.096500	-1.768253	 1.718759	 18.217040	 12.486200	-0.830763	-1.082487	 0.000158	 0.083055	-0.000218	-13.656880	-0.608657	 2.879221	-0.000124	 0.351373	 0.000250	-3.188608	-2.381701	-32.225610	 0.072885	 11.593450	 0.001300	-3.721102	-6.823056	-19.150660	-0.000240	 0.274948	 0.000141	 2.511806	-0.688508	 0.560947	-0.000000	 0.000000	 0.000000	 5.039606	-1.353817	 1.153969	-0.873122	-1.182005	 13.852120	-83.293900	-5.361636	-0.255421	-20.268130	 11.408880	-42.705930	 29.020540	 20.233860	-32.279790	-5.323916	-7.648622	 11.867400	-5.446485	-7.652601	 11.703780	 1.239356	 4.528237	-14.542780	 78.789330	 6.135414	 31.758960	 24.281860	 27.234020	 73.976160	-26.704720	-10.490480	 24.855390
-0.138880	 1.053920	-1.096260	-1.848694	 1.763175	 19.384610	 12.699650	-1.277635	-1.610864	 0.001430	 0.078028	 0.000176	-13.969420	-0.421606	 2.232696	-0.000590	 0.350579	 0.000792	-3.053871	-2.438221	-32.907700	 0.076592	 11.838140	 0.000514	-3.943695	-7.060277	-19.618000	-0.000109	 0.272429	-0.000288	 2.581255	-0.726504	 0.714645	-0.000000	 0.000000	 0.000000	 5.182332	-1.422097	 1.463214	-1.013559	-1.316081	 13.756750	-83.235310	-5.561282	-0.136327	-20.681900	 11.091180	-43.068260	 29.322770	 18.657660	-32.324410	-5.475923	-7.932792	 12.785940	-5.657544	-7.832385	 12.484070	 1.380212	 4.818293	-14.504440	 78.684230	 6.364717	 32.031980	 24.622290	 29.037180	 75.142560	-25.111730	-10.673490	 25.188540
-0.140020	 1.053760	-1.096180	-1.881540	 1.771821	 19.955290	 12.797900	-1.489115	-1.847561	-0.000018	 0.078172	-0.000837	-14.132230	-0.317812	 1.908627	-0.000022	 0.349648	 0.000080	-3.006330	-2.472422	-33.230420	 0.084917	 12.001080	-0.000007	-4.048653	-7.189408	-19.862350	-0.000378	 0.270591	 0.000496	 2.626963	-0.730997	 0.762739	-0.000000	 0.000000	 0.000000	 5.274623	-1.428066	 1.562291	-1.184547	-1.314450	 13.509690	-83.190720	-5.617859	-0.122044	-20.888720	 10.905760	-43.254890	 29.409270	 17.762250	-32.374980	-5.652931	-7.899338	 12.873700	-5.758437	-7.882515	 12.777450	 1.372357	 4.998310	-14.697860	 78.652850	 6.517070	 32.156020	 24.902330	 29.734750	 75.731000	-24.332970	-10.638650	 24.857940
-0.142270	 1.053360	-1.095840	-1.917212	 1.785127	 21.059290	 12.958940	-1.887003	-2.318048	 0.001089	 0.083106	 0.000155	-14.477840	-0.113102	 1.324358	-0.000410	 0.348060	 0.000579	-2.967820	-2.558955	-34.022440	 0.086760	 12.416030	 0.000083	-4.250126	-7.500103	-20.200200	-0.000615	 0.268870	-0.000164	 2.699465	-0.749598	 0.865517	-0.000000	 0.000000	 0.000000	 5.421068	-1.462568	 1.770112	-1.356175	-1.458749	 13.496990	-82.935560	-5.703987	-0.132362	-21.165190	 10.437800	-43.846970	 28.650000	 17.241120	-32.407200	-5.745351	-7.916946	 13.309380	-5.918793	-7.859132	 13.107340	 1.664706	 5.186014	-14.742210	 78.358430	 6.868295	 32.320480	 25.731760	 31.200020	 76.562810	-22.456010	-10.671030	 24.242180
-0.143800	 1.053050	-1.095460	-1.884443	 1.754609	 21.867580	 13.017160	-2.107799	-2.787224	 0.000636	 0.078268	-0.000093	-14.606410	-0.010043	 1.002297	-0.000608	 0.347256	 0.000484	-3.013374	-2.581461	-34.758390	 0.082827	 12.794200	-0.000305	-4.436590	-7.766960	-20.320580	 0.000293	 0.265774	-0.000101	 2.740254	-0.749547	 0.907631	-0.000000	 0.000000	 0.000000	 5.503746	-1.458701	 1.854458	-1.540831	-1.542216	 13.271250	-82.600440	-5.797104	-0.275710	-21.436780	 10.265440	-44.068000	 28.390840	 17.477590	-32.462820	-5.743771	-7.840582	 13.149090	-5.838342	-7.834185	 13.067130	 1.655849	 5.389627	-14.861320	 78.160110	 6.953522	 32.408880	 26.373250	 32.085920	 77.235180	-20.958740	-10.486450	 23.937490
